<svg width="368" height="368" viewBox="0 0 368 368" fill="none" xmlns="http://www.w3.org/2000/svg">
<path d="M184 217C250.849 217 312.835 237.823 363.824 273.337C366.461 275.175 368 278.201 368 281.416V358C368 363.523 363.523 368 358 368H10C4.47716 368 0 363.523 0 358V281.416C0 278.201 1.53884 275.175 4.17635 273.337C55.1654 237.823 117.151 217 184 217ZM368 180.231C368 187.839 359.821 192.693 353 189.322C302.05 164.147 244.677 150 184 150C123.323 150 65.9502 164.147 15 189.322C8.17894 192.693 0 187.839 0 180.231V10C0 4.47715 4.47715 0 10 0H358C363.523 0 368 4.47715 368 10V180.231Z" fill="black"/>
</svg>
